<svg width="1024" height="1024" viewBox="0 0 1024 1024" fill="none" xmlns="http://www.w3.org/2000/svg">
<path d="M668.277 312.183L681.801 227.661C682.591 222.723 682.986 220.254 682.116 217.73C681.423 215.719 679.693 213.485 677.919 212.311C675.693 210.837 673.389 210.62 668.781 210.184C648.503 208.268 604.069 205.679 511.999 205.679C419.93 205.679 375.497 208.268 355.218 210.184C350.61 210.62 348.307 210.837 346.08 212.311C344.307 213.485 342.577 215.719 341.884 217.73C341.014 220.254 341.409 222.723 342.199 227.661L355.723 312.183C359.404 335.191 361.244 346.695 360.077 357.227C358.989 367.053 356.566 375.181 352.097 384C347.307 393.452 338.766 402.843 321.683 421.624C272.859 475.305 228.858 532.443 192.012 590.705C186.813 598.926 184.213 603.037 179.192 603.571C175.208 603.995 170.639 601.531 168.805 597.969C166.493 593.48 168.172 589.774 171.53 582.362C198.939 521.866 242.733 462.707 291.097 407.511C302.082 394.974 307.575 388.706 310.698 382.088C313.551 376.043 315.102 370.102 315.566 363.434C316.075 356.133 314.435 348.402 311.155 332.939L277.34 173.525C276.319 168.712 275.808 166.305 274.445 164.451C273.291 162.881 271.527 161.531 269.71 160.826C267.565 159.993 265.256 160.12 260.638 160.373C114.965 168.355 68.4502 303.384 31.7206 453.649C-16.1571 649.522 -25.7042 871.284 117.858 871.284C182.585 871.284 231.019 795.101 259.228 734.766C273.201 704.879 280.187 689.936 288.045 681.951C295.899 673.97 302.235 669.938 312.792 666.203C323.353 662.466 337.321 662.466 365.256 662.466H511.999H658.744C686.679 662.466 700.646 662.466 711.208 666.203C721.765 669.938 728.101 673.97 735.955 681.951C743.813 689.936 750.799 704.879 764.772 734.766C792.981 795.101 841.415 871.284 906.142 871.284C1049.7 871.284 1040.16 649.522 992.279 453.649C955.55 303.384 909.035 168.355 763.361 160.373C758.743 160.12 756.435 159.993 754.289 160.826C752.473 161.531 750.709 162.881 749.555 164.451C748.192 166.305 747.681 168.712 746.66 173.525L712.845 332.939C709.565 348.402 707.925 356.133 708.434 363.434C708.898 370.102 710.448 376.043 713.301 382.088C716.425 388.706 721.918 394.974 732.903 407.511C781.267 462.707 825.061 521.866 852.47 582.362C855.828 589.774 857.507 593.48 855.195 597.969C853.361 601.531 848.792 603.995 844.808 603.571C839.787 603.037 837.187 598.926 831.988 590.705C795.142 532.443 751.141 475.305 702.316 421.624C685.234 402.843 676.693 393.452 671.903 384C667.434 375.181 665.011 367.053 663.922 357.227C662.755 346.695 664.596 335.191 668.277 312.184L668.277 312.183Z" fill="black"/>
</svg>
